Coordinates
version=1
nRows=9
nColumns=36
inDegrees=yes

Units are S.I. units (second, meters, Newtons, ...)
If the header above contains a line with 'inDegrees', this indicates whether rotational values are in degrees (yes) or radians (no).

endheader
time	pelvis_tilt	pelvis_list	pelvis_rotation	pelvis_tx	pelvis_ty	pelvis_tz	hip_flexion_r	hip_adduction_r	hip_rotation_r	knee_angle_r	knee_angle_r_beta	ankle_angle_r	subtalar_angle_r	mtp_angle_r	hip_flexion_l	hip_adduction_l	hip_rotation_l	knee_angle_l	knee_angle_l_beta	ankle_angle_l	subtalar_angle_l	mtp_angle_l	lumbar_extension	lumbar_bending	lumbar_rotation	arm_flex_r	arm_add_r	arm_rot_r	elbow_flex_r	pro_sup_r	arm_flex_l	arm_add_l	arm_rot_l	elbow_flex_l	pro_sup_l
      4.50000000	    -16.62356038	     -8.34678700	     -5.10645272	     -0.11751955	      0.69093884	     -0.09661453	     81.85889113	     -1.49406415	     -4.62556211	     84.37789350	      1.47267206	     28.08205322	      1.17376962	     -7.49999987	     89.53407379	    -15.05178880	      4.94175425	     92.18271043	      1.60889181	     23.57862564	     13.72300474	     -7.49999987	    -21.65713618	     -6.69073735	     -0.92778675	    -19.90008426	     -6.76200492	     -2.28768173	     63.41846723	    110.84169644	     36.27849014	     -3.70664556	     24.38001827	     30.12231538	    103.00715392
      4.51666670	    -16.35973674	     -8.33218328	     -5.20776273	     -0.11789247	      0.69131762	     -0.09717079	     81.61420394	     -1.46275205	     -4.64046061	     84.34646325	      1.47212350	     28.05739470	      1.24927913	     -7.49999987	     89.30508472	    -15.16524391	      4.91653825	     92.23948194	      1.60988266	     23.53984940	     13.72154491	     -7.49999987	    -21.63231100	     -6.51759771	     -1.43222197	    -19.67777814	     -7.14502249	     -1.68800946	     62.80543673	    110.40108359	     35.94730895	     -4.20720511	     23.93125079	     30.40280040	    102.40206929
      4.53333330	    -16.07740906	     -8.31712219	     -5.37320280	     -0.11848014	      0.69126751	     -0.09629789	     81.28422219	     -1.26423552	     -4.61358111	     84.34767819	      1.47214470	     27.87178900	      1.16973103	     -7.49999987	     88.92148003	    -15.35270832	      4.88184456	     92.25278466	      1.61011484	     23.76913335	     13.91903421	     -7.49999987	    -21.52533919	     -6.38445364	     -1.92438181	    -19.41872525	     -7.59349150	     -0.91639096	     62.32374856	    109.20446084	     35.94899476	     -4.67224090	     24.11598016	     30.43805688	    101.97383888
      4.55000000	    -15.67890821	     -8.36546818	     -5.36625934	     -0.10915518	      0.69294163	     -0.08942174	     80.63598252	     -1.04072009	     -4.59454334	     84.39442387	      1.47296057	     28.16117950	      1.32986999	     -7.49999987	     88.26803140	    -15.57101056	      4.86641474	     92.24934060	      1.61005473	     24.20388515	     14.27483482	     -7.49999987	    -21.23030926	     -6.21600840	     -2.87696998	    -19.13651686	     -7.92851764	     -0.02513358	     61.72073550	    108.71405626	     34.95357688	     -5.49676889	     23.03169431	     31.53995056	    102.68407527
      4.56666670	    -15.60941689	     -8.48175209	     -5.19730230	     -0.12248591	      0.69067441	     -0.08269951	     80.73936480	     -0.99770431	     -4.80513791	     84.72348308	      1.47870373	     28.05872270	      1.56988780	     -7.49999987	     88.55836977	    -15.73430010	      5.07441466	     92.43652392	      1.61332169	     24.37136583	     14.90821924	     -7.49999987	    -21.16230964	     -6.10515542	     -3.18013688	    -19.24894438	     -7.86068151	     -0.03032974	     61.46746804	    108.60792487	     35.20796503	     -5.75940709	     23.05150766	     31.66162480	    102.67829711
      4.58333330	    -15.34046547	     -8.39247023	     -5.49311084	     -0.10999765	      0.69284874	     -0.08918156	     80.40210070	     -0.62198068	     -4.59614981	     84.68221278	      1.47798343	     28.23795843	      1.33920003	     -7.49999987	     88.02434165	    -16.05546399	      5.02286128	     92.43402104	      1.61327801	     24.49336308	     14.77440165	     -7.49999987	    -20.84957441	     -6.13095605	     -3.42132905	    -19.20033604	     -8.33055463	      1.54552312	     61.14392843	    103.79787732	     34.77162015	     -6.37353827	     23.77427454	     32.15638914	    100.39129529
      4.60000000	    -14.97438823	     -8.24453199	     -5.70827176	     -0.11122746	      0.69322752	     -0.08842668	     79.82125212	     -0.41775513	     -4.45967116	     84.44189566	      1.47378911	     28.30378691	      1.52113908	     -7.49999987	     87.24887081	    -16.38929767	      4.78341720	     92.28109716	      1.61060898	     24.88436486	     14.98250133	     -7.49999987	    -20.59762094	     -6.16048966	     -3.90336957	    -19.10591279	     -8.40812306	      1.56237204	     60.68422523	    105.83486280	     34.17312622	     -6.94232771	     23.31940397	     32.91802516	    101.16708022
      4.61666670	    -14.64772682	     -8.18587522	     -5.91500970	     -0.11216302	      0.69340890	     -0.08877943	     79.48281436	     -0.28642770	     -4.44470339	     84.45147465	      1.47395629	     28.49328279	      1.80883735	     -7.49999987	     86.87060066	    -16.75959198	      4.63202923	     92.40481320	      1.61276824	     25.19351509	     15.40170248	     -7.49999987	    -20.55976492	     -6.06360560	     -4.27302886	    -19.30342376	     -8.64486252	      1.66531404	     60.79119801	    104.58231275	     33.85931686	     -7.37933918	     22.93430745	     33.82133251	     99.82784615
      4.63333330	    -14.52979955	     -8.14215730	     -6.07893851	     -0.11252086	      0.69332733	     -0.08805287	     79.44079339	     -0.17157492	     -4.42362379	     84.56409434	      1.47592188	     28.50405026	      1.74971728	     -7.49999987	     86.80337245	    -17.00619500	      4.57771853	     92.60889557	      1.61633014	     25.38875038	     15.51010468	     -7.49999987	    -20.50586454	     -5.96660694	     -4.20894842	    -19.40002233	     -8.92477241	      1.91237949	     60.36017363	    104.18147860	     33.84336610	     -7.39742124	     22.63545589	     34.10971344	     99.77684680
